<svg xmlns="http://www.w3.org/2000/svg" width="150.378" height="149.621" viewBox="0 0 150.378 149.621"><defs><style>.a{fill:#413e83;opacity:0.6;}.b{fill:#ff9632;}</style></defs><path class="a" d="M102.257,44.942V68.595A6.672,6.672,0,0,1,99.9,73.618a8.65,8.65,0,0,1-5.714,2.073H83.42a8.65,8.65,0,0,1-5.714-2.073,6.672,6.672,0,0,1-2.359-5.023V44.942A20.121,20.121,0,0,0,68.16,29.825a26.088,26.088,0,0,0-17.267-6.171C37.573,23.772,26.91,33.5,26.91,45.208V66.23H0V45.385C0,20.549,22.705.089,50.96,0S102.257,20.106,102.257,44.942Z" transform="translate(24.803 0)"/><path class="b" d="M150.378,14.082V70.41c0,7.777-7.214,14.082-16.112,14.082H16.112C7.214,84.492,0,78.187,0,70.41V14.082C0,6.3,7.214,0,16.112,0H134.266C143.165,0,150.378,6.3,150.378,14.082Z" transform="translate(0 65.129)"/></svg>
