<svg id="Layer_1" data-name="Layer 1" xmlns="http://www.w3.org/2000/svg" viewBox="0 0 341.37 73.7"><defs><style>.cls-1{fill:#ff9632;}</style></defs><path class="cls-1" d="M109.08,73a36.11,36.11,0,1,1,36.11-36.11A36.12,36.12,0,0,1,109.08,73M72.23,0V73.7h73.7V0Z"/><path class="cls-1" d="M36.11.74A36.11,36.11,0,1,0,72.23,36.85,36.11,36.11,0,0,0,36.11.74"/><path d="M176.7,14.4c-.17-.43-.4-1.15-.7-2.18-.26,1-.47,1.71-.64,2.18l-3.44,8.82h8.18ZM187.61,31v1.28H181V31a.5.5,0,0,1,.45-.52l1.32-.38L181,25.47h-9.91l-1.8,4.62,1.32.38A.49.49,0,0,1,171,31v1.28h-6.57V31a.49.49,0,0,1,.42-.52l1.28-.38L174.46,9.3h3.14l8.31,20.79,1.29.38a.51.51,0,0,1,.41.52"/><path d="M205.09,32.27h-3a1.41,1.41,0,0,1-1.09-.58L195.66,25a1.16,1.16,0,0,0-.48-.42,2.35,2.35,0,0,0-.74-.09h-.77v5.42l1.12.22.68.13a.57.57,0,0,1,.51.61v1.38h-7.51V30.89a.56.56,0,0,1,.48-.61l1.83-.35V11q-1.53-.29-1.83-.39a.53.53,0,0,1-.48-.57V8.63h5.2V22.52h.71a1.22,1.22,0,0,0,1-.45l3.66-3.91-.39-.07-.51-.1a.56.56,0,0,1-.51-.61V16h6.8v1.34A.51.51,0,0,1,204,18l-2,.39-3.78,4a4.43,4.43,0,0,1-.93.87,3.35,3.35,0,0,1,1,1L202.78,30l.83.13c.57.09,1,.19,1,.19a.54.54,0,0,1,.48.58Z"/><path d="M213,25.18a10.57,10.57,0,0,0-2.25.67,3.06,3.06,0,0,0-1.28,1A2.13,2.13,0,0,0,209,28a3,3,0,0,0,.23,1.09,1.85,1.85,0,0,0,.57.77,2.52,2.52,0,0,0,.84.41,3.59,3.59,0,0,0,1.06.16,6.14,6.14,0,0,0,2.53-.57,5,5,0,0,0,1.06-.71q.31-.26,1-.9V25a19.63,19.63,0,0,0-3.33.22m8.24,5.65v1.38h-3.34c-.64,0-.9-.23-1-.64L216.55,30l-1.28,1a5.44,5.44,0,0,1-1.29.77,7.17,7.17,0,0,1-1.41.49,7.81,7.81,0,0,1-1.73.16,5.28,5.28,0,0,1-1.73-.29,4.26,4.26,0,0,1-1.45-.77,4.09,4.09,0,0,1-1-1.35,4.39,4.39,0,0,1-.35-1.92,3.52,3.52,0,0,1,.51-1.87,4.89,4.89,0,0,1,1.73-1.6,11.11,11.11,0,0,1,3.08-1.15,21.79,21.79,0,0,1,4.69-.42V21.88a4.37,4.37,0,0,0-.84-2.89,3,3,0,0,0-2.4-1,4.9,4.9,0,0,0-1.77.29,7.49,7.49,0,0,0-1.22.58c-.13.09-.27.18-.43.27l-.5.31a1.24,1.24,0,0,1-.74.26.87.87,0,0,1-.51-.13,1.52,1.52,0,0,1-.32-.39l-.51-.9A9.43,9.43,0,0,1,210,16.36a8.63,8.63,0,0,1,3.47-.64,5.94,5.94,0,0,1,2.44.45,5,5,0,0,1,1.76,1.22,4.84,4.84,0,0,1,1.09,1.92,7.8,7.8,0,0,1,.36,2.5v8.12a10.92,10.92,0,0,1,1.47.36c.11,0,.61.2.61.54"/><path d="M234.32,27.72V19.89A4.49,4.49,0,0,0,230.56,18,4.2,4.2,0,0,0,227,19.57a7.54,7.54,0,0,0-1.22,4.62q0,4.59,2.38,5.64a5.43,5.43,0,0,0,1.79.36,5.33,5.33,0,0,0,4.37-2.47m0-10.08V11l-2.15-.39a.53.53,0,0,1-.48-.57V8.59h5.45V29.9c1.07.19,1.69.32,1.86.38a.53.53,0,0,1,.45.58v1.41h-4a.76.76,0,0,1-.77-.61l-.26-2A6.84,6.84,0,0,1,229,32.46a5.36,5.36,0,0,1-4.49-2.11,10.07,10.07,0,0,1-1.67-6.16,9.29,9.29,0,0,1,1.89-6,6.3,6.3,0,0,1,5.17-2.44,5.71,5.71,0,0,1,4.43,1.92"/><path d="M245.51,19.05A5.89,5.89,0,0,0,244,22.39h8.82a5.39,5.39,0,0,0-.29-1.8,4.29,4.29,0,0,0-.77-1.44,4,4,0,0,0-1.32-.93,5.55,5.55,0,0,0-1.73-.35,4.1,4.1,0,0,0-3.24,1.18m5.84-2.79a5.42,5.42,0,0,1,2.12,1.38,6.67,6.67,0,0,1,1.41,2.28,9.17,9.17,0,0,1,.51,3.08,1.78,1.78,0,0,1-.13.9.65.65,0,0,1-.57.22H243.91a8.75,8.75,0,0,0,.38,2.7,5.38,5.38,0,0,0,1.09,1.86A4.14,4.14,0,0,0,247,29.83a5.38,5.38,0,0,0,2,.39A6.26,6.26,0,0,0,250.9,30a12.66,12.66,0,0,0,1.35-.54c.47-.24.79-.41,1-.52a1.38,1.38,0,0,1,.64-.25.61.61,0,0,1,.55.29l.8,1.06a5.1,5.1,0,0,1-1.28,1.09,8,8,0,0,1-1.57.8,12.84,12.84,0,0,1-1.74.45,11.6,11.6,0,0,1-1.76.16,8.19,8.19,0,0,1-3.11-.58,6.73,6.73,0,0,1-2.47-1.7,7.25,7.25,0,0,1-1.61-2.73,11.26,11.26,0,0,1-.58-3.72,9.05,9.05,0,0,1,.55-3.14,7.6,7.6,0,0,1,1.51-2.57,6.9,6.9,0,0,1,2.4-1.7,7.8,7.8,0,0,1,3.15-.61,7.34,7.34,0,0,1,2.66.48"/><path d="M267.09,15.78a3.84,3.84,0,0,1,2.69.93,5.28,5.28,0,0,1,1.48,2.47,5.15,5.15,0,0,1,2.12-2.57,5.78,5.78,0,0,1,2.82-.83,6.89,6.89,0,0,1,2.5.42,4.28,4.28,0,0,1,1.74,1.18,6.69,6.69,0,0,1,1.41,4.56v8a15.63,15.63,0,0,1,1.86.39.53.53,0,0,1,.48.57v1.42H279V22a4.24,4.24,0,0,0-.83-2.89,3.13,3.13,0,0,0-2.44-1,3.32,3.32,0,0,0-2.44,1,3.94,3.94,0,0,0-1.06,2.89v8l.55.13,1.28.26a.53.53,0,0,1,.49.57V32.3H269.4V21.94q0-3.86-3.08-3.85a4.63,4.63,0,0,0-3.63,2.12V30l.87.16,1,.19a.56.56,0,0,1,.48.61v1.35h-7.47V30.92a.55.55,0,0,1,.45-.61l1.86-.35V18.38A15.63,15.63,0,0,1,258,18a.54.54,0,0,1-.45-.61V16h4a.69.69,0,0,1,.77.57c.06.49.22,1.67.22,1.67v0a5.89,5.89,0,0,1,4.59-2.54"/><path d="M293.55,30.49a.71.71,0,0,1,.13.4v1.38H286.2V30.89a.64.64,0,0,1,.13-.4.48.48,0,0,1,.35-.21l1.86-.35V18.35L286.68,18a.5.5,0,0,1-.35-.2.67.67,0,0,1-.13-.41V16h5.17V29.93l1.82.35a.52.52,0,0,1,.36.21"/><path d="M312.33,32.27h-3a1.38,1.38,0,0,1-1.09-.58L302.89,25a1.16,1.16,0,0,0-.48-.42,2.35,2.35,0,0,0-.74-.09h-.77v5.42l1.8.35a.57.57,0,0,1,.51.61v1.38h-7.5V30.89a.56.56,0,0,1,.48-.61l1.83-.35V11a17.9,17.9,0,0,1-1.83-.39.53.53,0,0,1-.48-.57V8.63h5.19V22.52h.71a1.24,1.24,0,0,0,1-.45l3.65-3.91L305.4,18a.56.56,0,0,1-.52-.61V16h6.8v1.34c0,.33-.13.52-.41.58l-2,.39-3.79,4a4,4,0,0,1-.93.87,3.37,3.37,0,0,1,1,1L310,30l1.89.34a.51.51,0,0,1,.42.5Z"/><path d="M317.43,19.05A5.89,5.89,0,0,0,316,22.39h8.82a5.15,5.15,0,0,0-.29-1.8,4.12,4.12,0,0,0-.77-1.44,4,4,0,0,0-1.31-.93,5.39,5.39,0,0,0-1.73-.35,4.15,4.15,0,0,0-3.25,1.18m5.84-2.79a5.42,5.42,0,0,1,2.12,1.38,6.67,6.67,0,0,1,1.41,2.28,9.18,9.18,0,0,1,.52,3.08,1.91,1.91,0,0,1-.13.9.67.67,0,0,1-.58.22H315.83a8.75,8.75,0,0,0,.38,2.7,5.26,5.26,0,0,0,1.1,1.86,4.11,4.11,0,0,0,1.6,1.15,5.42,5.42,0,0,0,2,.39,6.26,6.26,0,0,0,1.86-.23,12.66,12.66,0,0,0,1.35-.54c.47-.24.79-.41,1-.52a1.41,1.41,0,0,1,.65-.25.6.6,0,0,1,.54.29l.8,1.06a4.93,4.93,0,0,1-1.28,1.09,7.73,7.73,0,0,1-1.57.8,12.73,12.73,0,0,1-1.73.45,11.73,11.73,0,0,1-1.77.16,8.19,8.19,0,0,1-3.11-.58,6.81,6.81,0,0,1-2.47-1.7,7.25,7.25,0,0,1-1.61-2.73A11.27,11.27,0,0,1,313,23.8a9,9,0,0,1,.54-3.14,7.76,7.76,0,0,1,1.51-2.57,6.84,6.84,0,0,1,2.41-1.7,7.78,7.78,0,0,1,3.14-.61,7.34,7.34,0,0,1,2.66.48"/><path d="M339.16,15.72a4.25,4.25,0,0,1,2.21.57L341,18.44c-.07.28-.2.42-.42.42a3.12,3.12,0,0,1-.77-.16,4.56,4.56,0,0,0-1.31-.16q-2.83,0-4.17,3.4v8l1.82.35a.56.56,0,0,1,.48.61v1.35h-7.47V30.92a.56.56,0,0,1,.48-.61l1.83-.35V18.38a17.9,17.9,0,0,1-1.83-.39.55.55,0,0,1-.48-.61V16h3.92c.4,0,.82.1.89.72,0,0,.19,2.58.19,2.58h0c1.19-2.42,2.84-3.62,4.94-3.62"/><path d="M177.46,45.08a5.82,5.82,0,0,0-4.08-1.22h-3.27v9.43h3.27a5.76,5.76,0,0,0,4-1.28,4.5,4.5,0,0,0,1.45-3.5,4.57,4.57,0,0,0-1.38-3.43m2.28,8.66a9.51,9.51,0,0,1-6.36,2h-3.27v6.26c.17.06.79.19,1.86.38a.55.55,0,0,1,.45.61v1.35h-7.7V63a.56.56,0,0,1,.48-.61l1.83-.35V43.76c-1-.19-1.63-.32-1.83-.38a.56.56,0,0,1-.48-.61V41.42h8.95a8.16,8.16,0,0,1,6.46,2.44,7.06,7.06,0,0,1,1.79,4.85,6.87,6.87,0,0,1-2.18,5"/><path d="M187,51.17a5.89,5.89,0,0,0-1.47,3.34h8.82a5.39,5.39,0,0,0-.29-1.8,4.29,4.29,0,0,0-.77-1.44,4,4,0,0,0-1.32-.93,4.89,4.89,0,0,0-1.73-.35A4.1,4.1,0,0,0,187,51.17m5.84-2.79A5.42,5.42,0,0,1,195,49.76,6.58,6.58,0,0,1,196.4,52a9.17,9.17,0,0,1,.51,3.08,1.78,1.78,0,0,1-.13.9.65.65,0,0,1-.57.22H185.43a8.75,8.75,0,0,0,.38,2.7,5.38,5.38,0,0,0,1.09,1.86A4.14,4.14,0,0,0,188.51,62a5.38,5.38,0,0,0,2.05.39,6.26,6.26,0,0,0,1.86-.23,12.66,12.66,0,0,0,1.35-.54c.47-.24.79-.41,1-.52a1.38,1.38,0,0,1,.64-.25.61.61,0,0,1,.55.29l.8,1.06a5.1,5.1,0,0,1-1.28,1.09,7.76,7.76,0,0,1-1.58.8,12.37,12.37,0,0,1-1.73.45,11.6,11.6,0,0,1-1.76.16,8.39,8.39,0,0,1-3.11-.58,6.73,6.73,0,0,1-2.47-1.7,7.33,7.33,0,0,1-1.61-2.73,11.26,11.26,0,0,1-.58-3.72,9.05,9.05,0,0,1,.55-3.14,7.6,7.6,0,0,1,1.51-2.57,6.9,6.9,0,0,1,2.4-1.7,7.8,7.8,0,0,1,3.15-.61,7.34,7.34,0,0,1,2.66.48"/><path d="M209.32,47.87a5,5,0,0,1,4,1.7A6.78,6.78,0,0,1,214.74,54v8c1,.19,1.64.32,1.83.38a.57.57,0,0,1,.52.61v1.38h-5.2V54.06q0-3.91-3.4-3.91a5.9,5.9,0,0,0-4.43,2.27v9.63c.09,0,.71.13,1.86.38a.56.56,0,0,1,.48.61v1.35h-7.47V63a.55.55,0,0,1,.45-.61l1.86-.35V50.5a15.63,15.63,0,0,1-1.86-.39.54.54,0,0,1-.45-.61V48.16h4c.38,0,.7.1.77.57s.25,1.77.25,1.77v0a7.2,7.2,0,0,1,5.39-2.6"/><path d="M229.65,48.77v4.17H228.4a.52.52,0,0,1-.55-.45l-.19-2.12a11.73,11.73,0,0,0-2.5-.35h0a4,4,0,0,0-2.22.7,1.89,1.89,0,0,0-.48,2.7,4,4,0,0,0,1.86,1.12l1,.29c.18,0,.52.15,1,.32a10.8,10.8,0,0,1,2.89,1.41,3.47,3.47,0,0,1,1.31,2.83,4.69,4.69,0,0,1-1.57,3.72,6.25,6.25,0,0,1-4.3,1.51,16.48,16.48,0,0,1-5.26-.87V59.51h1.16a.46.46,0,0,1,.48.39l.19,2.05a7.37,7.37,0,0,0,3.3.65,3.77,3.77,0,0,0,2.51-.81,2.16,2.16,0,0,0,.83-1.63,2,2,0,0,0-.38-1.35,3.14,3.14,0,0,0-1-.77,6.07,6.07,0,0,0-1.34-.51c-1.59-.52-2.58-.86-3-1a7.22,7.22,0,0,1-1.44-.9,3.72,3.72,0,0,1-1.35-3,4.19,4.19,0,0,1,1.54-3.27,6.63,6.63,0,0,1,4.52-1.41,13.78,13.78,0,0,1,4.24.87"/><path d="M240.46,62.61a.64.64,0,0,1,.13.4v1.38h-7.48V63a.71.71,0,0,1,.13-.4.5.5,0,0,1,.36-.21l1.86-.35V50.47l-1.86-.36a.52.52,0,0,1-.36-.2.74.74,0,0,1-.13-.41V48.16h5.17V62.05l1.83.35a.48.48,0,0,1,.35.21"/><path d="M253.54,60.8a7.61,7.61,0,0,0,1.19-4.53,7.6,7.6,0,0,0-1.19-4.52,4.07,4.07,0,0,0-3.59-1.6,5.19,5.19,0,0,0-2.12.38,3.93,3.93,0,0,0-1.47,1.22,5.66,5.66,0,0,0-.9,1.92,11.09,11.09,0,0,0-.32,2.64,10.69,10.69,0,0,0,.32,2.56,5.62,5.62,0,0,0,.9,1.93A3.62,3.62,0,0,0,247.83,62a5.24,5.24,0,0,0,2.12.45,4.07,4.07,0,0,0,3.59-1.6m-.38-12.32a7.15,7.15,0,0,1,2.47,1.67,6.86,6.86,0,0,1,1.54,2.63,11.19,11.19,0,0,1,0,6.93,6.94,6.94,0,0,1-1.54,2.63A7.27,7.27,0,0,1,253.16,64a9.17,9.17,0,0,1-6.42,0,7.27,7.27,0,0,1-2.47-1.66,7.63,7.63,0,0,1-1.57-2.63,10.13,10.13,0,0,1-.51-3.47,10.07,10.07,0,0,1,.51-3.46,7.53,7.53,0,0,1,1.57-2.63,7.15,7.15,0,0,1,2.47-1.67,9.17,9.17,0,0,1,6.42,0"/><path d="M269.71,47.87a5,5,0,0,1,4,1.7A6.78,6.78,0,0,1,275.13,54v8c1,.19,1.63.32,1.83.38a.57.57,0,0,1,.51.61v1.38h-5.2V54.06q0-3.91-3.4-3.91a5.91,5.91,0,0,0-4.43,2.27v9.63l1.87.38a.56.56,0,0,1,.48.61v1.35h-7.48V63a.55.55,0,0,1,.45-.61l1.86-.35V50.5c-1.1-.22-1.68-.33-1.86-.39a.56.56,0,0,1-.45-.61V48.16h4a.68.68,0,0,1,.77.57c.06.45.26,1.77.26,1.77v0a7.18,7.18,0,0,1,5.39-2.6"/><path d="M292,10.9a2.06,2.06,0,1,1-2-2.05,2.05,2.05,0,0,1,2,2.05"/><path d="M238.44,43.29a2.06,2.06,0,1,1-2.05-2.06,2.06,2.06,0,0,1,2.05,2.06"/></svg>
