<svg xmlns="http://www.w3.org/2000/svg" width="149.845" height="149.96" viewBox="0 0 149.845 149.96"><defs><style>.a,.b{fill:#413e83;}.b{opacity:0.2;}</style></defs><path class="a" d="M135.8,149.959A135.835,135.835,0,0,1,0,14.055,7.032,7.032,0,0,1,5.439,7.2L21.757,3.437,43.9,55.129l-5.677,4.647a108.486,108.486,0,0,0,51.863,51.9L94.73,106l51.69,22.167-3.77,16.35a7.023,7.023,0,0,1-6.838,5.444Zm-34.89-51.512,3.693-4.512a7.012,7.012,0,0,1,8.194-2.024l32.777,14.056a7.112,7.112,0,0,1,4.1,8.085l-1.111,4.833ZM31.024,1.3,35.879.179a7.055,7.055,0,0,1,8.047,4.068l14.051,32.8a7,7,0,0,1-2.023,8.2l-4.521,3.7Z" transform="translate(0 0.001)"/><path class="b" d="M73.916,106.077l6.255-7.648,48.267,20.708-2.164,9.4ZM0,2.172,9.389,0,30.074,48.279l-7.642,6.26Z" transform="translate(21.406)"/></svg>
