<svg xmlns="http://www.w3.org/2000/svg" width="149.85" height="149.967" viewBox="0 0 149.85 149.967"><defs><style>.a{fill:#413e83;opacity:0.6;}.b{fill:#423d86;}</style></defs><path class="a" d="M0,62.486a62.437,62.437,0,1,1,62.437,62.486A62.461,62.461,0,0,1,0,62.486Z"/><path class="b" d="M52.739,43.947,43.9,52.786a7.461,7.461,0,0,1-10.585,0L2.186,21.645A7.5,7.5,0,0,1,0,16.336V11.244L11.241,0h5.09a7.493,7.493,0,0,1,5.308,2.186l31.132,31.14a7.532,7.532,0,0,1-.031,10.62Z" transform="translate(94.905 94.979)"/></svg>
